# xmcd
#
# Track frame offsets: 
#        150
#        11732
#        21626
#        36642
#        50331
#        66561
#        77969
#        91197
#        104710
#        117449
#        131478
#        142401
#
# Disc length: 2129 seconds
#
# Revision: 0
# Processed by: cddbd v1.5.2PL0 Copyright (c) Steve Scherf et al.
# Submitted via: ExactAudioCopy v0.95a5
#
DISCID=bd084f0c
DTITLE=Camp Lo - Black Hollywood
DYEAR=2007
DGENRE=Hip-Hop
TTITLE0=Posse From the Bronx
TTITLE1=82 Afros feat.Ski
TTITLE2=Soul Fever
TTITLE3=Pushahoe
TTITLE4=Suga Willie's Revenge feat. Jungle Brown
TTITLE5=Jack N' Jill
TTITLE6=Material
TTITLE7=Money Clap
TTITLE8=Ganja Lounge
TTITLE9=Black Hollywood
TTITLE10=Zoom
TTITLE11=Sweet Claudine
EXTD=
EXTT0=
EXTT1=
EXTT2=
EXTT3=
EXTT4=
EXTT5=
EXTT6=
EXTT7=
EXTT8=
EXTT9=
EXTT10=
EXTT11=
PLAYORDER=
